<mxfile host="app.diagrams.net" modified="2022-04-28T01:20:33.755Z" agent="5.0 (Windows NT 10.0; Win64; x64) AppleWebKit/537.36 (KHTML, like Gecko) Chrome/100.0.4896.127 Safari/537.36" etag="7jZb4QsfzDl4aBnrUEoi" version="17.4.6" type="github">
  <diagram id="C5RBs43oDa-KdzZeNtuy" name="Page-1">
    <mxGraphModel dx="2047" dy="1152" grid="1" gridSize="10" guides="1" tooltips="1" connect="1" arrows="1" fold="1" page="1" pageScale="1" pageWidth="827" pageHeight="1169" background="#283618" math="0" shadow="0">
      <root>
        <mxCell id="WIyWlLk6GJQsqaUBKTNV-0" />
        <mxCell id="WIyWlLk6GJQsqaUBKTNV-1" parent="WIyWlLk6GJQsqaUBKTNV-0" />
        <mxCell id="iNeMPHEpktOnRXPGyjd0-44" value="" style="edgeStyle=orthogonalEdgeStyle;curved=0;rounded=1;sketch=0;orthogonalLoop=1;jettySize=auto;html=1;fontSize=14;fontColor=#FEFAE0;strokeColor=#DDA15E;fillColor=#BC6C25;" edge="1" parent="WIyWlLk6GJQsqaUBKTNV-1" source="iNeMPHEpktOnRXPGyjd0-42" target="iNeMPHEpktOnRXPGyjd0-43">
          <mxGeometry relative="1" as="geometry" />
        </mxCell>
        <mxCell id="iNeMPHEpktOnRXPGyjd0-42" value="Start" style="rounded=1;whiteSpace=wrap;html=1;sketch=0;fontColor=#FEFAE0;strokeColor=#DDA15E;fillColor=#BC6C25;fontSize=14;" vertex="1" parent="WIyWlLk6GJQsqaUBKTNV-1">
          <mxGeometry x="354" y="10" width="120" height="60" as="geometry" />
        </mxCell>
        <mxCell id="iNeMPHEpktOnRXPGyjd0-46" value="Small" style="edgeStyle=orthogonalEdgeStyle;curved=0;rounded=1;sketch=0;orthogonalLoop=1;jettySize=auto;html=1;fontSize=14;fontColor=#FFFFFF;strokeColor=#DDA15E;fillColor=#BC6C25;labelBackgroundColor=none;" edge="1" parent="WIyWlLk6GJQsqaUBKTNV-1" source="iNeMPHEpktOnRXPGyjd0-43" target="iNeMPHEpktOnRXPGyjd0-45">
          <mxGeometry x="0.7368" relative="1" as="geometry">
            <mxPoint as="offset" />
          </mxGeometry>
        </mxCell>
        <mxCell id="iNeMPHEpktOnRXPGyjd0-48" value="Medium" style="edgeStyle=orthogonalEdgeStyle;curved=0;rounded=1;sketch=0;orthogonalLoop=1;jettySize=auto;html=1;fontSize=14;fontColor=#FEFAE0;strokeColor=#DDA15E;fillColor=#BC6C25;labelBackgroundColor=none;" edge="1" parent="WIyWlLk6GJQsqaUBKTNV-1" source="iNeMPHEpktOnRXPGyjd0-43" target="iNeMPHEpktOnRXPGyjd0-47">
          <mxGeometry relative="1" as="geometry" />
        </mxCell>
        <mxCell id="iNeMPHEpktOnRXPGyjd0-50" value="Large" style="edgeStyle=orthogonalEdgeStyle;curved=0;rounded=1;sketch=0;orthogonalLoop=1;jettySize=auto;html=1;fontSize=14;fontColor=#FEFAE0;strokeColor=#DDA15E;fillColor=#BC6C25;labelBackgroundColor=none;" edge="1" parent="WIyWlLk6GJQsqaUBKTNV-1" source="iNeMPHEpktOnRXPGyjd0-43" target="iNeMPHEpktOnRXPGyjd0-49">
          <mxGeometry x="0.7468" relative="1" as="geometry">
            <mxPoint as="offset" />
          </mxGeometry>
        </mxCell>
        <mxCell id="iNeMPHEpktOnRXPGyjd0-43" value="Size" style="rhombus;whiteSpace=wrap;html=1;fontSize=14;fillColor=#BC6C25;strokeColor=#DDA15E;fontColor=#FEFAE0;rounded=1;sketch=0;" vertex="1" parent="WIyWlLk6GJQsqaUBKTNV-1">
          <mxGeometry x="374" y="140" width="80" height="80" as="geometry" />
        </mxCell>
        <mxCell id="iNeMPHEpktOnRXPGyjd0-52" value="" style="edgeStyle=orthogonalEdgeStyle;curved=0;rounded=1;sketch=0;orthogonalLoop=1;jettySize=auto;html=1;labelBackgroundColor=none;fontSize=14;fontColor=#FFFFFF;strokeColor=#DDA15E;fillColor=#BC6C25;entryX=0.388;entryY=0.063;entryDx=0;entryDy=0;entryPerimeter=0;" edge="1" parent="WIyWlLk6GJQsqaUBKTNV-1" source="iNeMPHEpktOnRXPGyjd0-45" target="iNeMPHEpktOnRXPGyjd0-84">
          <mxGeometry relative="1" as="geometry">
            <mxPoint x="400" y="390" as="targetPoint" />
            <Array as="points">
              <mxPoint x="10" y="360" />
              <mxPoint x="400" y="360" />
              <mxPoint x="400" y="390" />
              <mxPoint x="399" y="390" />
            </Array>
          </mxGeometry>
        </mxCell>
        <mxCell id="iNeMPHEpktOnRXPGyjd0-45" value="$15" style="whiteSpace=wrap;html=1;fontSize=14;fillColor=#BC6C25;strokeColor=#DDA15E;fontColor=#FEFAE0;rounded=1;sketch=0;" vertex="1" parent="WIyWlLk6GJQsqaUBKTNV-1">
          <mxGeometry x="-40" y="270" width="120" height="60" as="geometry" />
        </mxCell>
        <mxCell id="iNeMPHEpktOnRXPGyjd0-85" value="" style="edgeStyle=orthogonalEdgeStyle;curved=0;rounded=1;sketch=0;orthogonalLoop=1;jettySize=auto;html=1;labelBackgroundColor=none;fontSize=14;fontColor=#FFFFFF;strokeColor=#DDA15E;fillColor=#BC6C25;" edge="1" parent="WIyWlLk6GJQsqaUBKTNV-1" source="iNeMPHEpktOnRXPGyjd0-47" target="iNeMPHEpktOnRXPGyjd0-84">
          <mxGeometry relative="1" as="geometry" />
        </mxCell>
        <mxCell id="iNeMPHEpktOnRXPGyjd0-47" value="$20" style="whiteSpace=wrap;html=1;fontSize=14;fillColor=#BC6C25;strokeColor=#DDA15E;fontColor=#FEFAE0;rounded=1;sketch=0;" vertex="1" parent="WIyWlLk6GJQsqaUBKTNV-1">
          <mxGeometry x="354" y="270" width="120" height="60" as="geometry" />
        </mxCell>
        <mxCell id="iNeMPHEpktOnRXPGyjd0-62" value="" style="edgeStyle=orthogonalEdgeStyle;curved=0;rounded=1;sketch=0;orthogonalLoop=1;jettySize=auto;html=1;labelBackgroundColor=none;fontSize=14;fontColor=#FFFFFF;strokeColor=#DDA15E;fillColor=#BC6C25;" edge="1" parent="WIyWlLk6GJQsqaUBKTNV-1" source="iNeMPHEpktOnRXPGyjd0-49" target="iNeMPHEpktOnRXPGyjd0-84">
          <mxGeometry relative="1" as="geometry">
            <mxPoint x="430" y="380" as="targetPoint" />
            <Array as="points">
              <mxPoint x="600" y="300" />
              <mxPoint x="600" y="360" />
              <mxPoint x="430" y="360" />
            </Array>
          </mxGeometry>
        </mxCell>
        <mxCell id="iNeMPHEpktOnRXPGyjd0-49" value="$25" style="whiteSpace=wrap;html=1;fontSize=14;fillColor=#BC6C25;strokeColor=#DDA15E;fontColor=#FEFAE0;rounded=1;sketch=0;" vertex="1" parent="WIyWlLk6GJQsqaUBKTNV-1">
          <mxGeometry x="620" y="270" width="120" height="60" as="geometry" />
        </mxCell>
        <mxCell id="iNeMPHEpktOnRXPGyjd0-57" value="+$0" style="whiteSpace=wrap;html=1;fontSize=14;fillColor=#BC6C25;strokeColor=#DDA15E;fontColor=#FEFAE0;rounded=1;sketch=0;" vertex="1" parent="WIyWlLk6GJQsqaUBKTNV-1">
          <mxGeometry x="-10" y="500" width="120" height="60" as="geometry" />
        </mxCell>
        <mxCell id="iNeMPHEpktOnRXPGyjd0-81" value="Yes" style="edgeStyle=orthogonalEdgeStyle;curved=0;rounded=1;sketch=0;orthogonalLoop=1;jettySize=auto;html=1;labelBackgroundColor=none;fontSize=14;fontColor=#FFFFFF;strokeColor=#DDA15E;fillColor=#BC6C25;" edge="1" parent="WIyWlLk6GJQsqaUBKTNV-1" source="iNeMPHEpktOnRXPGyjd0-70" target="iNeMPHEpktOnRXPGyjd0-80">
          <mxGeometry relative="1" as="geometry" />
        </mxCell>
        <mxCell id="iNeMPHEpktOnRXPGyjd0-83" value="No" style="edgeStyle=orthogonalEdgeStyle;curved=0;rounded=1;sketch=0;orthogonalLoop=1;jettySize=auto;html=1;labelBackgroundColor=none;fontSize=14;fontColor=#FFFFFF;strokeColor=#DDA15E;fillColor=#BC6C25;" edge="1" parent="WIyWlLk6GJQsqaUBKTNV-1" source="iNeMPHEpktOnRXPGyjd0-70" target="iNeMPHEpktOnRXPGyjd0-82">
          <mxGeometry relative="1" as="geometry" />
        </mxCell>
        <mxCell id="iNeMPHEpktOnRXPGyjd0-70" value="Extra Cheese" style="rhombus;whiteSpace=wrap;html=1;fontSize=14;fillColor=#BC6C25;strokeColor=#DDA15E;fontColor=#FEFAE0;rounded=1;sketch=0;" vertex="1" parent="WIyWlLk6GJQsqaUBKTNV-1">
          <mxGeometry x="530" y="670" width="80" height="80" as="geometry" />
        </mxCell>
        <mxCell id="iNeMPHEpktOnRXPGyjd0-80" value="+$1" style="whiteSpace=wrap;html=1;fontSize=14;fillColor=#BC6C25;strokeColor=#DDA15E;fontColor=#FEFAE0;rounded=1;sketch=0;" vertex="1" parent="WIyWlLk6GJQsqaUBKTNV-1">
          <mxGeometry x="700" y="880" width="120" height="60" as="geometry" />
        </mxCell>
        <mxCell id="iNeMPHEpktOnRXPGyjd0-82" value="+$0" style="whiteSpace=wrap;html=1;fontSize=14;fillColor=#BC6C25;strokeColor=#DDA15E;fontColor=#FEFAE0;rounded=1;sketch=0;" vertex="1" parent="WIyWlLk6GJQsqaUBKTNV-1">
          <mxGeometry x="347" y="880" width="120" height="60" as="geometry" />
        </mxCell>
        <mxCell id="iNeMPHEpktOnRXPGyjd0-87" value="No" style="edgeStyle=orthogonalEdgeStyle;curved=0;rounded=1;sketch=0;orthogonalLoop=1;jettySize=auto;html=1;labelBackgroundColor=none;fontSize=14;fontColor=#FFFFFF;strokeColor=#DDA15E;fillColor=#BC6C25;entryX=1;entryY=0.5;entryDx=0;entryDy=0;" edge="1" parent="WIyWlLk6GJQsqaUBKTNV-1" source="iNeMPHEpktOnRXPGyjd0-84" target="iNeMPHEpktOnRXPGyjd0-57">
          <mxGeometry relative="1" as="geometry">
            <mxPoint x="260" y="440" as="targetPoint" />
          </mxGeometry>
        </mxCell>
        <mxCell id="iNeMPHEpktOnRXPGyjd0-89" value="Yes" style="edgeStyle=orthogonalEdgeStyle;curved=0;rounded=1;sketch=0;orthogonalLoop=1;jettySize=auto;html=1;labelBackgroundColor=none;fontSize=14;fontColor=#FFFFFF;strokeColor=#DDA15E;fillColor=#BC6C25;" edge="1" parent="WIyWlLk6GJQsqaUBKTNV-1" source="iNeMPHEpktOnRXPGyjd0-84" target="iNeMPHEpktOnRXPGyjd0-88">
          <mxGeometry relative="1" as="geometry" />
        </mxCell>
        <mxCell id="iNeMPHEpktOnRXPGyjd0-84" value="Want pepperoni" style="rhombus;whiteSpace=wrap;html=1;fontSize=14;fillColor=#BC6C25;strokeColor=#DDA15E;fontColor=#FEFAE0;rounded=1;sketch=0;" vertex="1" parent="WIyWlLk6GJQsqaUBKTNV-1">
          <mxGeometry x="347" y="400" width="134" height="80" as="geometry" />
        </mxCell>
        <mxCell id="iNeMPHEpktOnRXPGyjd0-91" value="s" style="edgeStyle=orthogonalEdgeStyle;curved=0;rounded=1;sketch=0;orthogonalLoop=1;jettySize=auto;html=1;labelBackgroundColor=none;fontSize=14;fontColor=#FFFFFF;strokeColor=#DDA15E;fillColor=#BC6C25;" edge="1" parent="WIyWlLk6GJQsqaUBKTNV-1" source="iNeMPHEpktOnRXPGyjd0-88" target="iNeMPHEpktOnRXPGyjd0-90">
          <mxGeometry relative="1" as="geometry" />
        </mxCell>
        <mxCell id="iNeMPHEpktOnRXPGyjd0-93" value="M / L" style="edgeStyle=orthogonalEdgeStyle;curved=0;rounded=1;sketch=0;orthogonalLoop=1;jettySize=auto;html=1;labelBackgroundColor=none;fontSize=14;fontColor=#FFFFFF;strokeColor=#DDA15E;fillColor=#BC6C25;" edge="1" parent="WIyWlLk6GJQsqaUBKTNV-1" source="iNeMPHEpktOnRXPGyjd0-88" target="iNeMPHEpktOnRXPGyjd0-92">
          <mxGeometry relative="1" as="geometry" />
        </mxCell>
        <mxCell id="iNeMPHEpktOnRXPGyjd0-88" value="Size" style="rhombus;whiteSpace=wrap;html=1;fontSize=14;fillColor=#BC6C25;strokeColor=#DDA15E;fontColor=#FEFAE0;rounded=1;sketch=0;" vertex="1" parent="WIyWlLk6GJQsqaUBKTNV-1">
          <mxGeometry x="520" y="490" width="80" height="80" as="geometry" />
        </mxCell>
        <mxCell id="iNeMPHEpktOnRXPGyjd0-95" value="" style="edgeStyle=orthogonalEdgeStyle;curved=0;rounded=1;sketch=0;orthogonalLoop=1;jettySize=auto;html=1;labelBackgroundColor=none;fontSize=14;fontColor=#FFFFFF;strokeColor=#DDA15E;fillColor=#BC6C25;" edge="1" parent="WIyWlLk6GJQsqaUBKTNV-1" source="iNeMPHEpktOnRXPGyjd0-90" target="iNeMPHEpktOnRXPGyjd0-70">
          <mxGeometry relative="1" as="geometry">
            <mxPoint x="510" y="720" as="targetPoint" />
            <Array as="points">
              <mxPoint x="350" y="680" />
            </Array>
          </mxGeometry>
        </mxCell>
        <mxCell id="iNeMPHEpktOnRXPGyjd0-90" value="+$2" style="whiteSpace=wrap;html=1;fontSize=14;fillColor=#BC6C25;strokeColor=#DDA15E;fontColor=#FEFAE0;rounded=1;sketch=0;" vertex="1" parent="WIyWlLk6GJQsqaUBKTNV-1">
          <mxGeometry x="310" y="580" width="120" height="60" as="geometry" />
        </mxCell>
        <mxCell id="iNeMPHEpktOnRXPGyjd0-97" value="" style="edgeStyle=orthogonalEdgeStyle;curved=0;rounded=1;sketch=0;orthogonalLoop=1;jettySize=auto;html=1;labelBackgroundColor=none;fontSize=14;fontColor=#FFFFFF;strokeColor=#DDA15E;fillColor=#BC6C25;entryX=1;entryY=0;entryDx=0;entryDy=0;" edge="1" parent="WIyWlLk6GJQsqaUBKTNV-1" source="iNeMPHEpktOnRXPGyjd0-92" target="iNeMPHEpktOnRXPGyjd0-70">
          <mxGeometry relative="1" as="geometry">
            <mxPoint x="750" y="720" as="targetPoint" />
            <Array as="points">
              <mxPoint x="750" y="690" />
            </Array>
          </mxGeometry>
        </mxCell>
        <mxCell id="iNeMPHEpktOnRXPGyjd0-92" value="+$3" style="whiteSpace=wrap;html=1;fontSize=14;fillColor=#BC6C25;strokeColor=#DDA15E;fontColor=#FEFAE0;rounded=1;sketch=0;" vertex="1" parent="WIyWlLk6GJQsqaUBKTNV-1">
          <mxGeometry x="690" y="580" width="120" height="60" as="geometry" />
        </mxCell>
      </root>
    </mxGraphModel>
  </diagram>
</mxfile>
